<?xml version="1.0" encoding="UTF-8" standalone="no"?> <!-- Created with Vectornator for iOS (http://vectornator.io/) --><!DOCTYPE svg PUBLIC "-//W3C//DTD SVG 1.1//EN" "http://www.w3.org/Graphics/SVG/1.1/DTD/svg11.dtd">
<svg width="100%" xmlns:xlink="http://www.w3.org/1999/xlink" xml:space="preserve" xmlns:vectornator="http://vectornator.io" version="1.1" height="100%" xmlns="http://www.w3.org/2000/svg" style="fill-rule:nonzero;clip-rule:evenodd;stroke-linecap:round;stroke-linejoin:round;" viewBox="0 0 600 84">
<metadata>
<vectornator:setting key="VNSnapToGuides" value="true"/>
<vectornator:setting value="false" key="WDDisplayWhiteBackground"/>
<vectornator:setting key="IsTimeLapseWatermarkDisabled" value="false"/>
<vectornator:setting key="WDGuidesVisible" value="true"/>
<vectornator:setting key="WDCMYKEnabledKey" value="false"/>
<vectornator:setting key="WDOutlineMode" value="false"/>
<vectornator:setting key="WDIsolateActiveLayer" value="false"/>
<vectornator:setting value="true" key="VNDimensionsVisible"/>
<vectornator:setting value="false" key="WDDynamicGuides"/>
<vectornator:setting value="false" key="WDSnapToGrid"/>
<vectornator:setting value="false" key="WDSnapToEdges"/>
<vectornator:setting key="WDSnapToPoints" value="false"/>
<vectornator:setting key="UndoHistoryDisabled" value="true"/>
<vectornator:setting value="true" key="WDRulersVisible"/>
<vectornator:setting key="WDUnits" value="Pixels"/>
</metadata>
<defs/>
<g vectornator:layerName="Layer 1" id="Layer 1">
<g opacity="1">
<path d="M599.969+71.0537L597.884+83.0711L555.701+83.0711L557.786+71.0537L599.969+71.0537Z" opacity="1" fill="#d80000"/>
<g opacity="1">
<g opacity="1">
<path opacity="1" d="M0+72.0711L15.6782+1.14125L34.6571+1.14125C39.5295+1.14125+43.2035+1.90646+45.679+3.43687C48.1545+4.96728+49.3922+7.82509+49.3922+12.0103C49.3922+13.0722+49.3137+14.3371+49.1565+15.8051C48.9993+17.273+48.7243+19.0689+48.3313+21.1928C47.9384+23.3166+47.4472+25.8152+46.8578+28.6886C46.2684+31.5621+45.5415+34.904+44.677+38.7144C43.5768+43.6492+42.6337+47.6782+41.8478+50.8015C41.062+53.9248+40.3154+56.4859+39.6081+58.4848C38.9008+60.4837+38.1935+62.0766+37.4862+63.2634C36.779+64.4503+36.0324+65.5434+35.2465+66.5429C33.6747+68.6667+31.6708+70.119+29.2346+70.8999C26.7983+71.6807+23.3798+72.0711+18.9789+72.0711L0+72.0711ZM21.2186+59.8903C22.5546+59.8903+23.5763+59.7341+24.2835+59.4218C24.9908+59.1095+25.6588+58.516+26.2875+57.6415C26.6019+57.0793+26.8966+56.4234+27.1716+55.6738C27.4467+54.9243+27.8003+53.8311+28.2326+52.3944C28.6648+50.9577+29.1756+49.0056+29.765+46.5382C30.3544+44.0708+31.0814+40.8382+31.9458+36.8404C32.6531+33.4673+33.2622+30.6095+33.773+28.267C34.2838+25.9245+34.6964+23.9725+35.0107+22.4108C35.3251+20.8492+35.5412+19.5843+35.6591+18.616C35.777+17.6478+35.8359+16.8202+35.8359+16.133C35.8359+15.0711+35.5608+14.2591+35.0107+13.6969C34.4606+13.1347+33.3604+12.8536+31.7101+12.8536L26.0518+12.8536L15.5603+59.8903L21.2186+59.8903Z" fill="#000000"/>
<path fill="#000000" opacity="1" d="M64.481+72.0711L66.8387+54.2684L58.587+54.2684L53.0466+72.0711L39.8439+72.0711L63.7738+1.14125L85.6997+1.14125L77.8016+72.0711L64.481+72.0711ZM72.3791+12.7599L71.436+12.7599L61.534+43.0245L68.7248+43.0245L72.3791+12.7599Z"/>
<path opacity="1" fill="#000000" d="M105.857+72.0711C105.779+71.7588+105.72+71.4621+105.681+71.181C105.641+70.8999+105.622+70.5407+105.622+70.1034C105.622+68.979+105.739+67.3237+105.975+65.1374C106.211+62.9511+106.466+60.6555+106.741+58.2506C107.017+55.8456+107.272+53.5969+107.508+51.5043C107.743+49.4117+107.861+47.8969+107.861+46.9599C107.861+45.3982+107.645+44.3988+107.213+43.9615C106.781+43.5243+106.054+43.3056+105.032+43.3056L101.496+43.3056L95.1302+72.0711L82.1632+72.0711L97.8414+1.14125L118.471+1.14125C123.029+1.14125+126.251+1.89084+128.137+3.39002C130.023+4.8892+130.966+7.38783+130.966+10.8859C130.966+11.5106+130.946+12.1977+130.907+12.9473C130.868+13.6969+130.75+14.6026+130.553+15.6645C130.357+16.7265+130.102+18.007+129.787+19.5062C129.473+21.0054+129.08+22.7856+128.608+24.847C127.98+27.2207+127.331+29.1884+126.663+30.75C125.995+32.3117+125.288+33.5922+124.542+34.5917C123.795+35.5911+122.989+36.3719+122.125+36.9341C121.261+37.4963+120.357+37.9648+119.414+38.3396L119.296+38.9018C120.16+39.5889+120.75+40.5259+121.064+41.7127C121.378+42.8996+121.536+44.43+121.536+46.304C121.536+48.2404+121.437+50.3018+121.241+52.4881C121.044+54.6744+120.809+56.8295+120.534+58.9533C120.259+61.0771+120.023+63.1229+119.826+65.0906C119.63+67.0582+119.532+68.7916+119.532+70.2908L119.532+72.0711L105.857+72.0711ZM107.979+32.9051C109.158+32.9051+110.14+32.7801+110.926+32.5303C111.712+32.2804+112.4+31.7963+112.989+31.078C113.579+30.3596+114.089+29.3758+114.522+28.1265C114.954+26.8771+115.406+25.253+115.877+23.2541C116.349+21.0678+116.663+19.4281+116.82+18.3349C116.978+17.2418+117.056+16.3517+117.056+15.6645C117.056+14.4777+116.781+13.6656+116.231+13.2284C115.681+12.7911+114.738+12.5725+113.402+12.5725L108.215+12.5725L103.736+32.9051L107.979+32.9051Z"/>
<path d="M149.945+72.0711L145.583+38.6207L144.64+38.6207C144.64+38.9955+144.621+39.4015+144.581+39.8388C144.542+40.276+144.444+40.8226+144.287+41.4785C144.129+42.1344+143.933+42.9621+143.697+43.9615C143.461+44.961+143.186+46.2103+142.872+47.7095L137.567+72.0711L124.247+72.0711L139.925+1.14125L153.246+1.14125L148.295+23.2541C147.98+24.6908+147.725+25.8621+147.528+26.7678C147.332+27.6736+147.155+28.4232+146.998+29.0166C146.841+29.61+146.703+30.0785+146.585+30.4221C146.467+30.7656+146.369+31.0936+146.291+31.4059L147.234+31.4059L165.152+1.14125L179.18+1.14125L179.062+1.60974L158.197+34.8728L164.209+71.6963L164.209+72.0711L149.945+72.0711Z" opacity="1" fill="#000000"/>
</g>
<g opacity="1">
<path opacity="1" d="M218.508+22.8271C218.894+21.4158+219.3+19.897+219.724+18.2709C220.149+16.6448+220.361+15.1567+220.361+13.8067C220.361+12.6408+220.052+11.8891+219.435+11.5516C218.817+11.2141+217.736+11.0454+216.192+11.0454C215.266+11.0454+214.475+11.1374+213.819+11.3215C213.162+11.5056+212.603+11.8278+212.139+12.288C211.676+12.7482+211.271+13.4079+210.923+14.2669C210.576+15.126+210.248+16.2306+209.939+17.5806C209.399+19.5442+209.051+21.0322+208.897+22.0447C208.743+23.0572+208.665+23.8703+208.665+24.4839C208.665+25.0362+208.762+25.4811+208.955+25.8186C209.148+26.1561+209.437+26.5396+209.823+26.9691C210.518+27.5828+211.387+28.2117+212.429+28.8561C213.471+29.5004+214.571+30.114+215.729+30.6969C216.887+31.2799+218.026+31.8629+219.145+32.4458C220.265+33.0288+221.21+33.5657+221.982+34.0566C223.295+35.0384+224.298+35.9742+224.993+36.864C225.688+37.7537+226.035+39.1497+226.035+41.052C226.035+42.2179+225.92+43.7213+225.688+45.5622C225.456+47.4031+224.877+50.1644+223.951+53.8462C223.102+57.3439+222.118+60.2587+220.998+62.5905C219.879+64.9223+218.489+66.7939+216.829+68.2052C215.17+69.6166+213.162+70.6137+210.808+71.1967C208.453+71.7796+205.616+72.0711+202.296+72.0711C200.058+72.0711+198.108+71.933+196.448+71.6569C194.789+71.3808+193.399+70.8899+192.28+70.1842C191.16+69.4785+190.33+68.512+189.79+67.2848C189.249+66.0575+188.979+64.4927+188.979+62.5905C188.979+60.0746+189.288+57.5587+189.906+55.0428C190.523+52.5269+191.334+50.0417+192.337+47.5872L203.107+47.5872C202.644+48.8144+202.2+50.3485+201.775+52.1894C201.351+54.0303+201.138+55.7792+201.138+57.436C201.138+58.8473+201.466+59.7218+202.123+60.0592C202.779+60.3967+203.763+60.5655+205.076+60.5655C206.079+60.5655+206.967+60.4735+207.739+60.2894C208.511+60.1053+209.167+59.7064+209.708+59.0928C210.248+58.4791+210.75+57.6047+211.213+56.4695C211.676+55.3343+212.139+53.8155+212.603+51.9133C213.066+50.0724+213.355+48.7838+213.471+48.0474C213.587+47.311+213.645+46.7281+213.645+46.2985C213.645+45.5622+213.548+44.9792+213.355+44.5497C213.162+44.1202+212.834+43.6599+212.371+43.169C211.753+42.4327+210.846+41.6963+209.65+40.9599C208.453+40.2236+207.199+39.4872+205.886+38.7509C204.574+38.0145+203.281+37.2782+202.007+36.5418C200.733+35.8054+199.71+35.0691+198.938+34.3327C198.012+33.4736+197.375+32.6606+197.027+31.8935C196.68+31.1265+196.506+29.9759+196.506+28.4419C196.506+27.2146+196.641+25.6958+196.912+23.8856C197.182+22.0754+197.664+19.759+198.359+16.9362C199.131+13.6226+200.038+10.8766+201.08+8.69824C202.123+6.51984+203.416+4.78633+204.96+3.4977C206.504+2.20908+208.376+1.30397+210.576+0.782381C212.776+0.260794+215.459+0+218.624+0C223.719+0+227.309+0.644314+229.394+1.93294C231.478+3.22157+232.52+5.43064+232.52+8.56017C232.52+9.54198+232.424+10.6312+232.231+11.8278C232.038+13.0243+231.787+14.2516+231.478+15.5096C231.169+16.7675+230.822+18.0254+230.436+19.2834C230.05+20.5413+229.625+21.7226+229.162+22.8271L218.508+22.8271Z" fill="#000000"/>
<path opacity="1" d="M263.671+1.19658L276.409+1.19658L265.408+50.5326C264.79+53.1099+264.25+55.2729+263.786+57.0218C263.323+58.7706+262.821+60.2587+262.281+61.4859C261.741+62.7132+261.2+63.7564+260.66+64.6155C260.119+65.4746+259.502+66.303+258.807+67.1007C257.263+69.0029+255.256+70.3069+252.785+71.0126C250.315+71.7183+246.918+72.0711+242.595+72.0711C236.882+72.0711+232.926+71.3501+230.725+69.908C228.525+68.466+227.425+65.8427+227.425+62.0382C227.425+60.8109+227.56+59.2922+227.83+57.482C228.101+55.6718+228.544+53.3553+229.162+50.5326L240.163+1.19658L253.364+1.19658L242.363+50.5326C241.9+52.5576+241.591+54.061+241.437+55.0428C241.283+56.0246+241.205+56.7917+241.205+57.3439C241.205+58.3871+241.476+59.0928+242.016+59.461C242.556+59.8291+243.714+60.0132+245.49+60.0132C246.802+60.0132+247.787+59.9212+248.443+59.7371C249.099+59.553+249.659+59.1541+250.122+58.5405C250.354+58.2337+250.566+57.8962+250.759+57.528C250.952+57.1598+251.145+56.6689+251.338+56.0553C251.531+55.4417+251.724+54.7053+251.917+53.8462C252.11+52.9871+252.361+51.8826+252.67+50.5326L263.671+1.19658Z" fill="#000000"/>
<path fill="#000000" d="M266.797+70.8745L282.199+1.19658L302.117+1.19658C306.594+1.19658+309.817+1.9176+311.786+3.35964C313.754+4.80167+314.739+7.36359+314.739+11.0454C314.739+13.3772+314.526+15.7397+314.102+18.1328C313.677+20.526+313.079+22.8885+312.307+25.2203C311.844+26.7544+311.361+28.0276+310.859+29.0401C310.358+30.0526+309.837+30.9117+309.296+31.6174C308.756+32.3231+308.138+32.8907+307.443+33.3202C306.749+33.7498+306.015+34.1793+305.243+34.6089L305.127+35.2532C305.668+35.6213+306.189+35.9588+306.691+36.2657C307.192+36.5725+307.598+36.9253+307.907+37.3242C308.215+37.723+308.466+38.2293+308.659+38.8429C308.852+39.4565+308.949+40.2236+308.949+41.144C308.949+43.7213+308.64+46.2679+308.022+48.7838C307.405+51.2997+306.787+53.8462+306.17+56.4235C305.398+59.1235+304.49+61.3939+303.448+63.2348C302.406+65.0757+301.152+66.5638+299.685+67.699C298.218+68.8342+296.519+69.6473+294.589+70.1382C292.659+70.6291+290.421+70.8745+287.873+70.8745L266.797+70.8745ZM287.641+59.9212C289.263+59.9212+290.575+59.3996+291.579+58.3564C292.582+57.3132+293.47+55.1962+294.242+52.0053C294.782+49.5508+295.149+47.6485+295.342+46.2985C295.535+44.9486+295.632+43.8747+295.632+43.077C295.632+41.6656+295.342+40.7912+294.763+40.4537C294.184+40.1162+293.354+39.9475+292.273+39.9475L286.368+39.9475L281.851+59.9212L287.641+59.9212ZM293.547+30.9271C294.474+30.9271+295.246+30.789+295.863+30.5129C296.481+30.2367+297.06+29.7458+297.6+29.0401C298.141+28.3345+298.604+27.368+298.99+26.1407C299.376+24.9135+299.8+23.318+300.264+21.3544C300.65+19.759+300.939+18.409+301.132+17.3044C301.325+16.1999+301.422+15.3101+301.422+14.6351C301.422+13.4079+301.113+12.6715+300.495+12.4261C299.878+12.1806+298.913+12.0579+297.6+12.0579L292.505+12.0579L288.336+30.9271L293.547+30.9271Z" opacity="1"/>
<path d="M349.132+70.8745L359.785+22.7351L359.322+22.7351C359.168+23.1033+358.975+23.5635+358.743+24.1157C358.511+24.668+358.125+25.5271+357.585+26.693C357.045+27.8589+356.311+29.4697+355.385+31.5254C354.458+33.581+353.204+36.327+351.621+39.7634C350.039+43.1997+348.07+47.4491+345.715+52.5116C343.361+57.574+340.524+63.695+337.204+70.8745L331.298+70.8745C331.067+63.695+330.893+57.5894+330.777+52.5576C330.661+47.5258+330.565+43.2918+330.488+39.8554C330.41+36.4191+330.353+33.6731+330.314+31.6174C330.275+29.5617+330.256+27.9356+330.256+26.739C330.256+25.5424+330.256+24.6834+330.256+24.1618C330.256+23.6402+330.295+23.1646+330.372+22.7351L329.909+22.7351L319.255+70.8745L307.675+70.8745L323.076+1.19658L341.836+1.19658C341.759+6.167+341.682+10.4164+341.605+13.9448C341.527+17.4732+341.469+20.4646+341.431+22.9192C341.392+25.3737+341.354+27.3833+341.315+28.9481C341.276+30.5129+341.238+31.7861+341.199+32.768C341.161+33.7498+341.122+34.5322+341.083+35.1151C341.045+35.6981+341.026+36.235+341.026+36.7259L341.605+36.7259C341.759+36.235+341.952+35.6981+342.184+35.1151C342.415+34.5322+342.743+33.7498+343.168+32.768C343.592+31.7861+344.152+30.5129+344.847+28.9481C345.542+27.3833+346.41+25.3737+347.452+22.9192C348.495+20.4646+349.807+17.4732+351.39+13.9448C352.972+10.4164+354.844+6.167+357.006+1.19658L376.113+1.19658L360.712+70.8745L349.132+70.8745Z" fill="#000000" opacity="1"/>
<path d="M389.43+70.8745L391.746+53.386L383.64+53.386L378.198+70.8745L365.228+70.8745L388.735+1.19658L410.274+1.19658L402.516+70.8745L389.43+70.8745ZM397.189+12.6101L396.262+12.6101L386.535+42.3406L393.599+42.3406L397.189+12.6101Z" opacity="1" fill="#000000"/>
<path fill="#000000" d="M430.076+70.8745C429.999+70.5677+429.941+70.2762+429.903+70.0001C429.864+69.724+429.845+69.3711+429.845+68.9416C429.845+67.837+429.96+66.2109+430.192+64.0632C430.424+61.9155+430.675+59.6604+430.945+57.2979C431.215+54.9354+431.466+52.7263+431.697+50.6707C431.929+48.615+432.045+47.127+432.045+46.2065C432.045+44.6724+431.833+43.6906+431.408+43.2611C430.983+42.8315+430.269+42.6168+429.266+42.6168L425.792+42.6168L419.538+70.8745L406.8+70.8745L422.202+1.19658L442.467+1.19658C446.945+1.19658+450.11+1.93294+451.963+3.40566C453.815+4.87838+454.742+7.3329+454.742+10.7692C454.742+11.3829+454.722+12.0579+454.684+12.7942C454.645+13.5306+454.529+14.4204+454.336+15.4635C454.143+16.5067+453.893+17.7647+453.584+19.2374C453.275+20.7101+452.889+22.4589+452.426+24.4839C451.808+26.8157+451.171+28.7487+450.515+30.2827C449.859+31.8168+449.164+33.0748+448.431+34.0566C447.697+35.0384+446.906+35.8054+446.057+36.3577C445.208+36.91+444.32+37.3702+443.393+37.7384L443.278+38.2906C444.127+38.9656+444.706+39.8861+445.015+41.052C445.323+42.2179+445.478+43.7213+445.478+45.5622C445.478+47.4644+445.381+49.4894+445.188+51.6371C444.995+53.7849+444.764+55.9019+444.493+57.9882C444.223+60.0746+443.992+62.0842+443.799+64.0172C443.606+65.9501+443.509+67.6529+443.509+69.1257L443.509+70.8745L430.076+70.8745ZM432.161+32.3998C433.319+32.3998+434.284+32.2771+435.056+32.0316C435.828+31.7861+436.503+31.3106+437.082+30.6049C437.661+29.8992+438.163+28.9328+438.588+27.7055C439.012+26.4782+439.456+24.8828+439.919+22.9192C440.382+20.7714+440.691+19.1607+440.846+18.0868C441+17.013+441.077+16.1385+441.077+15.4635C441.077+14.2976+440.807+13.4999+440.267+13.0704C439.726+12.6408+438.8+12.4261+437.487+12.4261L432.392+12.4261L427.992+32.3998L432.161+32.3998Z" opacity="1"/>
<path fill="#000000" d="M448.257+70.8745L463.658+1.19658L476.86+1.19658L461.458+70.8745L448.257+70.8745Z" opacity="1"/>
<path opacity="1" fill="#000000" d="M497.588+70.8745L489.714+27.4294L489.25+27.4294L479.639+70.8745L467.943+70.8745L483.345+1.19658L496.662+1.19658L500.715+31.6634L501.178+31.6634L507.894+1.19658L519.706+1.19658L504.304+70.8745L497.588+70.8745Z"/>
<path opacity="1" d="M510.558+70.8745L525.959+1.19658L555.604+1.19658L553.057+12.7022L536.15+12.7022L532.328+29.8225L548.888+29.8225L546.456+40.7759L529.896+40.7759L525.959+58.8166L542.75+58.8166L540.087+70.8745L510.558+70.8745Z" fill="#000000"/>
</g>
</g>
</g>
</g>
</svg>
